<svg width="4213" height="2192" viewBox="0 0 4213 2192" fill="none" xmlns="http://www.w3.org/2000/svg">
<path d="M3411.71 129.065C3242.71 302.565 2896.71 661.565 2864.71 709.565C2919.38 759.102 3048.21 826.065 3048.21 826.065C3134.05 864.72 3657.58 979.107 3862.21 732.565L4212.71 389.065L3969.21 129.065C3773.89 -30.2327 3655.39 -55.3527 3411.71 129.065Z" fill="white"/>
<path d="M266.205 99.0631L0.705078 364.563L1487.21 1876.56C1854.21 2222.56 2286.21 2320.06 2596.71 1978.56L2916.71 1669.06C2475.93 1703.88 2267.99 1615.77 1953.71 1303.06L749.705 99.0631C555.093 -31.6497 449.858 -17.3097 266.205 99.0631Z" fill="white" stroke="black"/>
<path d="M1527.21 103.061C1444.37 183.394 1275.01 349.261 1260.21 370.061C1260.21 370.061 1829.71 957.063 2187.21 1311.56C2544.71 1666.06 2843.71 1732.56 3288.21 1311.56C3732.71 890.563 3569.71 1033.56 3569.71 1033.56C3194.47 1079.7 3000.07 1027.04 2687.71 766.561L2049.71 125.061C1848.67 -20.9544 1734.08 -16.8472 1527.21 103.061Z" fill="white" stroke="black"/>
</svg>
